G04 Generated by Ultiboard 14.0 *
%FSLAX34Y34*%
%MOMM*%

%ADD10C,0.0001*%
%ADD11C,0.2540*%
%ADD12C,0.3810*%
%ADD13C,0.1270*%
%ADD14C,1.6088*%
%ADD15R,0.5291X0.5291*%
%ADD16C,0.9949*%
%ADD17C,1.5000*%
%ADD18R,1.5000X1.5000*%
%ADD19C,1.5366*%
%ADD20R,1.5366X1.5366*%


G04 ColorRGB 00FF00 for the following layer *
%LNCopper Top*%
%LPD*%
G54D10*
G54D11*
X236220Y25916D02*
X236220Y30000D01*
X210000Y30000D01*
X202500Y37500D01*
X202500Y60000D01*
X202136Y60000D01*
X193294Y68842D01*
X939800Y76454D02*
X933754Y82500D01*
X930000Y82500D01*
X922500Y90000D01*
X922500Y150000D01*
X915000Y157500D01*
X720000Y157500D01*
X712500Y165000D01*
X712500Y277500D01*
X703326Y277500D01*
X703326Y280924D01*
X445288Y409292D02*
X439292Y409292D01*
X435000Y405000D01*
X412500Y405000D01*
X412500Y405420D01*
X408628Y409292D01*
X703326Y150924D02*
X697500Y156750D01*
X697500Y157500D01*
X690000Y165000D01*
X667500Y165000D01*
X667500Y175006D01*
X663956Y175006D01*
X965200Y76454D02*
X961454Y76454D01*
X960000Y75000D01*
X945000Y75000D01*
X943546Y76454D01*
X939800Y76454D01*
X193294Y68842D02*
X187500Y74636D01*
X187500Y75000D01*
X180000Y82500D01*
X157500Y82500D01*
X150000Y90000D01*
X150000Y127500D01*
X141740Y127500D01*
X141740Y132588D01*
X965200Y508254D02*
X960000Y503054D01*
X960000Y502500D01*
X945000Y502500D01*
X945000Y503054D01*
X939800Y508254D01*
X863600Y25400D02*
X863600Y36400D01*
X862500Y37500D01*
X862500Y45000D01*
X855000Y52500D01*
X720000Y52500D01*
X712500Y60000D01*
X712500Y150000D01*
X711576Y150924D01*
X703326Y150924D01*
X787400Y508000D02*
X781900Y502500D01*
X780000Y502500D01*
X780000Y457500D01*
X772500Y450000D01*
X501816Y450000D01*
X494284Y442468D01*
X302720Y127254D02*
X302720Y122720D01*
X300000Y120000D01*
X300000Y30000D01*
X300200Y30000D01*
X304800Y25400D01*
X371968Y279292D02*
X367500Y283760D01*
X367500Y307500D01*
X360000Y315000D01*
X221250Y315000D01*
X217500Y318750D01*
X217500Y352500D01*
X210000Y360000D01*
X195000Y360000D01*
X193548Y361452D01*
X193548Y370078D01*
X965200Y127254D02*
X974754Y127254D01*
X975246Y127254D01*
X982500Y120000D01*
X982500Y67500D01*
X975000Y60000D01*
X945000Y60000D01*
X937500Y52500D01*
X937500Y15000D01*
X930000Y7500D01*
X180000Y7500D01*
X172500Y15000D01*
X172500Y45000D01*
X165000Y52500D01*
X120000Y52500D01*
X112500Y45000D01*
X112500Y15000D01*
X105000Y7500D01*
X37500Y7500D01*
X30000Y15000D01*
X30000Y16736D01*
X23368Y23368D01*
X445288Y279292D02*
X445288Y285000D01*
X435000Y285000D01*
X435000Y322500D01*
X427500Y330000D01*
X255000Y330000D01*
X247500Y337500D01*
X247500Y401250D01*
X243750Y405000D01*
X134496Y405000D01*
X130556Y408940D01*
X150000Y90000D02*
X37500Y90000D01*
X30000Y82500D01*
X30000Y80800D01*
X23368Y74168D01*
X782320Y394462D02*
X776962Y394462D01*
X765000Y382500D01*
X548132Y382500D01*
X548132Y372110D01*
X408628Y279292D02*
X408628Y285000D01*
X397500Y285000D01*
X397500Y315000D01*
X390000Y322500D01*
X232500Y322500D01*
X225000Y330000D01*
X225000Y375000D01*
X217500Y382500D01*
X165000Y382500D01*
X163576Y383924D01*
X163576Y392684D01*
X81534Y233426D02*
X75926Y233426D01*
X75000Y232500D01*
X37500Y232500D01*
X36828Y233172D01*
X25908Y233172D01*
X584200Y508000D02*
X578700Y502500D01*
X577500Y502500D01*
X577500Y480000D01*
X580476Y477024D01*
X580476Y470470D01*
X130556Y408940D02*
X130556Y416944D01*
X127500Y420000D01*
X67500Y420000D01*
X67500Y422720D01*
X61976Y428244D01*
X431800Y25400D02*
X428900Y22500D01*
X412500Y22500D01*
X409600Y25400D01*
X406400Y25400D01*
X408628Y409292D02*
X405000Y405664D01*
X405000Y405000D01*
X382500Y405000D01*
X378208Y409292D01*
X371968Y409292D01*
X374396Y237442D02*
X369454Y232500D01*
X337500Y232500D01*
X330000Y225000D01*
X330000Y172500D01*
X320320Y172500D01*
X320320Y166296D01*
X61976Y479044D02*
X61976Y474476D01*
X60000Y472500D01*
X60000Y465000D01*
X61976Y463024D01*
X61976Y453644D01*
X703326Y280924D02*
X697500Y280924D01*
X697500Y292500D01*
X690000Y300000D01*
X562500Y300000D01*
X555000Y307500D01*
X555000Y345000D01*
X553290Y346710D01*
X548132Y346710D01*
X371968Y409292D02*
X368760Y412500D01*
X367500Y412500D01*
X367500Y435000D01*
X364284Y438216D01*
X364284Y442468D01*
X668226Y239014D02*
X668226Y246774D01*
X667500Y247500D01*
X667500Y262500D01*
X660000Y270000D01*
X487500Y270000D01*
X487500Y279292D01*
X481948Y279292D01*
X193048Y319278D02*
X187500Y319278D01*
X187500Y330000D01*
X180000Y337500D01*
X163076Y337500D01*
X163076Y341884D01*
X36576Y352044D02*
X30000Y345468D01*
X30000Y345000D01*
X22500Y337500D01*
X22500Y240000D01*
X25908Y236592D01*
X25908Y233172D01*
X285750Y176530D02*
X285750Y186750D01*
X285000Y187500D01*
X285000Y240000D01*
X277500Y247500D01*
X202500Y247500D01*
X202500Y250700D01*
X198118Y255082D01*
X548132Y346710D02*
X542342Y352500D01*
X300000Y352500D01*
X292500Y360000D01*
X292500Y390000D01*
X290070Y392430D01*
X286258Y392430D01*
X481948Y409292D02*
X476792Y409292D01*
X472500Y405000D01*
X449580Y405000D01*
X445288Y409292D01*
X889000Y25400D02*
X885000Y29400D01*
X885000Y82500D01*
X877500Y90000D01*
X780000Y90000D01*
X780000Y90204D01*
X772922Y97282D01*
X320320Y296296D02*
X316524Y292500D01*
X315000Y292500D01*
X307500Y285000D01*
X307500Y132034D01*
X302720Y127254D01*
X131056Y459740D02*
X131056Y457500D01*
X65832Y457500D01*
X61976Y453644D01*
X381000Y25400D02*
X381000Y36000D01*
X381000Y39000D01*
X375000Y45000D01*
X322500Y45000D01*
X315000Y37500D01*
X315000Y30000D01*
X310400Y25400D01*
X304800Y25400D01*
X787400Y25400D02*
X787500Y25400D01*
X787500Y37500D01*
X780000Y45000D01*
X645000Y45000D01*
X637500Y52500D01*
X637500Y225000D01*
X630000Y232500D01*
X538226Y232500D01*
X538226Y239014D01*
X193548Y370078D02*
X188626Y375000D01*
X157500Y375000D01*
X142500Y390000D01*
X26250Y390000D01*
X22500Y393750D01*
X22500Y412500D01*
X30000Y420000D01*
X30000Y421668D01*
X36576Y428244D01*
X198118Y229682D02*
X202500Y225300D01*
X202500Y150000D01*
X195000Y142500D01*
X150000Y142500D01*
X150000Y140848D01*
X141740Y132588D01*
X812800Y508000D02*
X807300Y502500D01*
X802500Y502500D01*
X802500Y428498D01*
X801370Y428498D01*
X61976Y453644D02*
X56144Y453644D01*
X52500Y450000D01*
X45000Y450000D01*
X41356Y453644D01*
X36576Y453644D01*
X286258Y392430D02*
X281188Y397500D01*
X277500Y397500D01*
X277500Y495000D01*
X270000Y502500D01*
X269660Y502500D01*
X264160Y508000D01*
G54D12*
X120000Y157500D02*
X120000Y300000D01*
X127500Y307500D01*
X150000Y307500D01*
X150000Y316022D01*
X154042Y316022D01*
X46482Y140970D02*
X46482Y136482D01*
X45000Y135000D01*
X45000Y115570D01*
X46482Y115570D01*
X184150Y176530D02*
X180000Y176530D01*
X180000Y165000D01*
X172500Y157500D01*
X52500Y157500D01*
X52500Y160352D01*
X46482Y166370D01*
X46482Y166370D02*
X46482Y158982D01*
X45000Y157500D01*
X45000Y150000D01*
X46482Y148518D01*
X46482Y140970D01*
X46482Y166370D02*
X46482Y171018D01*
X45000Y172500D01*
X45000Y195000D01*
X37500Y202500D01*
X30000Y202500D01*
X30000Y203680D01*
X25908Y207772D01*
X533956Y175006D02*
X527506Y175006D01*
X525000Y172500D01*
X472500Y172500D01*
X465000Y165000D01*
X465000Y30000D01*
X461800Y30000D01*
X457200Y25400D01*
G54D13*
X-2540Y-2540D02*
X-2540Y51308D01*
X-2540Y-2540D02*
X97568Y-2540D01*
X998540Y-2540D02*
X898432Y-2540D01*
X998540Y-2540D02*
X998540Y51308D01*
X998540Y535940D02*
X998540Y482092D01*
X998540Y535940D02*
X898432Y535940D01*
X-2540Y535940D02*
X97568Y535940D01*
X-2540Y535940D02*
X-2540Y482092D01*
X-52540Y-2540D02*
X-152540Y-2540D01*
X-102540Y-52540D02*
X-102540Y47460D01*
X-140040Y-2540D02*
G75*
D01*
G02X-140040Y-2540I37500J0*
G01*
X1048540Y-2540D02*
X1148540Y-2540D01*
X1098540Y-52540D02*
X1098540Y47460D01*
X1061040Y-2540D02*
G75*
D01*
G02X1061040Y-2540I37500J0*
G01*
X1086040Y-2540D02*
G75*
D01*
G02X1086040Y-2540I12500J0*
G01*
X-52540Y535940D02*
X-152540Y535940D01*
X-102540Y485940D02*
X-102540Y585940D01*
X-140040Y535940D02*
G75*
D01*
G02X-140040Y535940I37500J0*
G01*
X-127540Y535940D02*
G75*
D01*
G02X-127540Y535940I25000J0*
G01*
X-115040Y535940D02*
G75*
D01*
G02X-115040Y535940I12500J0*
G01*
G54D14*
X939800Y279654D03*
X939800Y432054D03*
X939800Y482854D03*
X939800Y457454D03*
X939800Y355854D03*
X939800Y381254D03*
X939800Y406654D03*
X939800Y305054D03*
X939800Y330454D03*
X939800Y101854D03*
X939800Y228854D03*
X939800Y254254D03*
X939800Y203454D03*
X939800Y152654D03*
X939800Y178054D03*
X939800Y127254D03*
X939800Y76454D03*
X965200Y279654D03*
X965200Y432054D03*
X965200Y508254D03*
X965200Y482854D03*
X965200Y457454D03*
X965200Y355854D03*
X965200Y381254D03*
X965200Y406654D03*
X965200Y305054D03*
X965200Y330454D03*
X965200Y101854D03*
X965200Y228854D03*
X965200Y254254D03*
X965200Y203454D03*
X965200Y152654D03*
X965200Y178054D03*
X965200Y127254D03*
X965200Y76454D03*
X264160Y508000D03*
X238760Y508000D03*
X213360Y508000D03*
X314960Y508000D03*
X289560Y508000D03*
X340360Y508000D03*
X391160Y508000D03*
X365760Y508000D03*
X416560Y508000D03*
X457200Y508000D03*
X584200Y508000D03*
X609600Y508000D03*
X558800Y508000D03*
X508000Y508000D03*
X533400Y508000D03*
X482600Y508000D03*
X685800Y508000D03*
X812800Y508000D03*
X838200Y508000D03*
X787400Y508000D03*
X736600Y508000D03*
X762000Y508000D03*
X711200Y508000D03*
X457200Y25400D03*
X330200Y25400D03*
X304800Y25400D03*
X355600Y25400D03*
X406400Y25400D03*
X381000Y25400D03*
X431800Y25400D03*
X685800Y25908D03*
X558800Y25908D03*
X533400Y25908D03*
X584200Y25908D03*
X635000Y25908D03*
X609600Y25908D03*
X660400Y25908D03*
X914400Y25400D03*
X787400Y25400D03*
X762000Y25400D03*
X812800Y25400D03*
X863600Y25400D03*
X838200Y25400D03*
X889000Y25400D03*
X25908Y233172D03*
X81534Y208026D03*
X81534Y233426D03*
X36576Y301244D03*
X61976Y402844D03*
X61976Y352044D03*
X61976Y326644D03*
X61976Y377444D03*
X61976Y479044D03*
X61976Y428244D03*
X61976Y453644D03*
X36576Y453644D03*
X36576Y377444D03*
X36576Y326644D03*
X36576Y352044D03*
X36576Y428244D03*
X36576Y402844D03*
X36576Y479044D03*
X23368Y23368D03*
X23368Y74168D03*
X48768Y74168D03*
X23368Y48768D03*
X48768Y48768D03*
X21082Y115570D03*
X21082Y166370D03*
X46482Y166370D03*
X21082Y140970D03*
X46482Y140970D03*
G54D15*
X939800Y508254D03*
X187960Y508000D03*
X635000Y508000D03*
X863600Y508000D03*
X279400Y25400D03*
X508000Y25908D03*
X736600Y25400D03*
X25908Y207772D03*
X81534Y182626D03*
X61976Y301244D03*
X48768Y23368D03*
X46482Y115570D03*
G54D16*
X937155Y505609D02*
X942445Y505609D01*
X942445Y510899D01*
X937155Y510899D01*
X937155Y505609D01*D02*
X185315Y505355D02*
X190605Y505355D01*
X190605Y510645D01*
X185315Y510645D01*
X185315Y505355D01*D02*
X632355Y505355D02*
X637645Y505355D01*
X637645Y510645D01*
X632355Y510645D01*
X632355Y505355D01*D02*
X860955Y505355D02*
X866245Y505355D01*
X866245Y510645D01*
X860955Y510645D01*
X860955Y505355D01*D02*
X276755Y22755D02*
X282045Y22755D01*
X282045Y28045D01*
X276755Y28045D01*
X276755Y22755D01*D02*
X505355Y23263D02*
X510645Y23263D01*
X510645Y28553D01*
X505355Y28553D01*
X505355Y23263D01*D02*
X733955Y22755D02*
X739245Y22755D01*
X739245Y28045D01*
X733955Y28045D01*
X733955Y22755D01*D02*
X23263Y205127D02*
X28553Y205127D01*
X28553Y210417D01*
X23263Y210417D01*
X23263Y205127D01*D02*
X78889Y179981D02*
X84179Y179981D01*
X84179Y185271D01*
X78889Y185271D01*
X78889Y179981D01*D02*
X59331Y298599D02*
X64621Y298599D01*
X64621Y303889D01*
X59331Y303889D01*
X59331Y298599D01*D02*
X46123Y20723D02*
X51413Y20723D01*
X51413Y26013D01*
X46123Y26013D01*
X46123Y20723D01*D02*
X43837Y112925D02*
X49127Y112925D01*
X49127Y118215D01*
X43837Y118215D01*
X43837Y112925D01*D02*
G54D17*
X154042Y214422D03*
X846582Y433530D03*
X782320Y394462D03*
X833120Y271986D03*
X193548Y370078D03*
X505254Y284988D03*
X481948Y409292D03*
X445288Y409292D03*
X408628Y409292D03*
X371968Y409292D03*
X703326Y150924D03*
X533956Y175006D03*
X668226Y239014D03*
X727456Y402288D03*
X772922Y227282D03*
X320320Y296296D03*
X671370Y428498D03*
X163576Y392684D03*
X130556Y408940D03*
X285750Y176530D03*
X302720Y127254D03*
X185420Y26416D03*
X142494Y69342D03*
X142240Y183388D03*
X538020Y129540D03*
X374396Y237442D03*
X413258Y236680D03*
X580476Y470470D03*
X443532Y89662D03*
X335486Y435864D03*
X364284Y442468D03*
G54D18*
X154042Y316022D03*
X846582Y303530D03*
X782320Y292862D03*
X833120Y141986D03*
X193048Y319278D03*
X635254Y284988D03*
X481948Y279292D03*
X445288Y279292D03*
X408628Y279292D03*
X371968Y279292D03*
X703326Y280924D03*
X663956Y175006D03*
X538226Y239014D03*
X727456Y272288D03*
X772922Y97282D03*
X320320Y166296D03*
X801370Y428498D03*
X163076Y341884D03*
X131056Y459740D03*
X184150Y176530D03*
X172720Y127254D03*
X236220Y25916D03*
X193294Y68842D03*
X141740Y132588D03*
X668020Y129540D03*
X374396Y107442D03*
X413258Y106680D03*
X450476Y470470D03*
X573532Y89662D03*
X205486Y435864D03*
X494284Y442468D03*
G54D19*
X198118Y229682D03*
X198118Y255082D03*
X286258Y392430D03*
X260858Y392430D03*
X548132Y346710D03*
X548132Y372110D03*
G54D20*
X198118Y280482D03*
X235458Y392430D03*
X548132Y397510D03*

M02*
