G04 Generated by Ultiboard 14.0 *
%FSLAX34Y34*%
%MOMM*%

%ADD10C,0.0001*%
%ADD11C,0.0010*%
%ADD12C,0.1270*%


G04 ColorRGB 00FFFF for the following layer *
%LNBoard Outline*%
%LPD*%
G54D10*
G54D11*
X965200Y533400D02*
X990600Y508000D01*
X990600Y12700D02*
X990600Y10000D01*
X980600Y0D02*
X10000Y0D01*
X0Y10000D02*
X0Y523400D01*
X10000Y533400D02*
X965200Y533400D01*
X980600Y0D02*
X981472Y38D01*
X982337Y152D01*
X983188Y341D01*
X984020Y603D01*
X984826Y937D01*
X985600Y1340D01*
X986336Y1809D01*
X987028Y2340D01*
X987671Y2929D01*
X988261Y3572D01*
X988792Y4265D01*
X989260Y5000D01*
X989663Y5774D01*
X989997Y6580D01*
X990259Y7412D01*
X990448Y8264D01*
X990562Y9129D01*
X990600Y10000D01*
X10000Y533400D02*
X9128Y533362D01*
X8263Y533248D01*
X7412Y533059D01*
X6580Y532797D01*
X5774Y532463D01*
X5000Y532060D01*
X4264Y531591D01*
X3572Y531060D01*
X2929Y530471D01*
X2339Y529828D01*
X1808Y529135D01*
X1340Y528400D01*
X937Y527626D01*
X603Y526820D01*
X341Y525988D01*
X152Y525136D01*
X38Y524271D01*
X0Y523400D01*
X0Y10000D02*
X38Y9128D01*
X152Y8263D01*
X341Y7412D01*
X603Y6580D01*
X937Y5774D01*
X1340Y5000D01*
X1809Y4264D01*
X2340Y3572D01*
X2929Y2929D01*
X3572Y2339D01*
X4265Y1808D01*
X5000Y1340D01*
X5774Y937D01*
X6580Y603D01*
X7412Y341D01*
X8264Y152D01*
X9129Y38D01*
X10000Y0D01*
X990600Y508000D02*
X990600Y406400D01*
X996000Y381000D02*
X996000Y38100D01*
X990600Y12700D01*
X990600Y406400D02*
X996000Y381000D01*
G54D12*
X-2540Y-2540D02*
X-2540Y51308D01*
X-2540Y-2540D02*
X97568Y-2540D01*
X998540Y-2540D02*
X898432Y-2540D01*
X998540Y-2540D02*
X998540Y51308D01*
X998540Y535940D02*
X998540Y482092D01*
X998540Y535940D02*
X898432Y535940D01*
X-2540Y535940D02*
X97568Y535940D01*
X-2540Y535940D02*
X-2540Y482092D01*
X-52540Y-2540D02*
X-152540Y-2540D01*
X-102540Y-52540D02*
X-102540Y47460D01*
X-140040Y-2540D02*
G75*
D01*
G02X-140040Y-2540I37500J0*
G01*
X1048540Y-2540D02*
X1148540Y-2540D01*
X1098540Y-52540D02*
X1098540Y47460D01*
X1061040Y-2540D02*
G75*
D01*
G02X1061040Y-2540I37500J0*
G01*
X1086040Y-2540D02*
G75*
D01*
G02X1086040Y-2540I12500J0*
G01*
X-52540Y535940D02*
X-152540Y535940D01*
X-102540Y485940D02*
X-102540Y585940D01*
X-140040Y535940D02*
G75*
D01*
G02X-140040Y535940I37500J0*
G01*
X-127540Y535940D02*
G75*
D01*
G02X-127540Y535940I25000J0*
G01*
X-115040Y535940D02*
G75*
D01*
G02X-115040Y535940I12500J0*
G01*

M02*
