G04 Generated by Ultiboard 14.0 *
%FSLAX34Y34*%
%MOMM*%

%ADD10C,0.0001*%
%ADD11C,0.3810*%
%ADD12C,0.2540*%
%ADD13C,0.1270*%
%ADD14C,1.6088*%
%ADD15R,0.5291X0.5291*%
%ADD16C,0.9949*%
%ADD17C,1.5000*%
%ADD18C,1.5366*%


G04 ColorRGB CCFFCC for the following layer *
%LNCopper Inner 1*%
%LPD*%
G54D10*
G54D11*
X533956Y175006D02*
X528962Y180000D01*
X525000Y180000D01*
X525000Y195000D01*
X517500Y202500D01*
X202500Y202500D01*
X195000Y195000D01*
X195000Y180000D01*
X191530Y176530D01*
X184150Y176530D01*
G54D12*
X685800Y25908D02*
X685800Y34200D01*
X675000Y45000D01*
X592500Y45000D01*
X585000Y52500D01*
X585000Y89662D01*
X573532Y89662D01*
X812800Y25400D02*
X807100Y25400D01*
X802500Y30000D01*
X802500Y105000D01*
X795000Y112500D01*
X652500Y112500D01*
X645000Y120000D01*
X645000Y284988D01*
X635254Y284988D01*
X320320Y166296D02*
X315000Y160976D01*
X315000Y116250D01*
X311250Y112500D01*
X157500Y112500D01*
X150000Y105000D01*
X150000Y75000D01*
X148152Y75000D01*
X142494Y69342D01*
X260858Y392430D02*
X260858Y384142D01*
X262500Y382500D01*
X262500Y225000D01*
X255000Y217500D01*
X165000Y217500D01*
X161922Y214422D01*
X154042Y214422D01*
X505254Y284988D02*
X505254Y289746D01*
X502500Y292500D01*
X390000Y292500D01*
X382500Y285000D01*
X382500Y279292D01*
X371968Y279292D01*
X736600Y25400D02*
X732000Y30000D01*
X727500Y30000D01*
X727500Y97500D01*
X720000Y105000D01*
X420000Y105000D01*
X418320Y106680D01*
X413258Y106680D01*
X914400Y25400D02*
X909800Y30000D01*
X907500Y30000D01*
X907500Y127500D01*
X900000Y135000D01*
X840000Y135000D01*
X840000Y135106D01*
X833120Y141986D01*
X198118Y229682D02*
X190318Y229682D01*
X187500Y232500D01*
X90000Y232500D01*
X89074Y233426D01*
X81534Y233426D01*
X846582Y433530D02*
X846582Y442500D01*
X570000Y442500D01*
X562500Y450000D01*
X562500Y504300D01*
X558800Y508000D01*
X727456Y272288D02*
X722244Y277500D01*
X720000Y277500D01*
X720000Y382500D01*
X712500Y390000D01*
X555000Y390000D01*
X555000Y390642D01*
X548132Y397510D01*
X198118Y229682D02*
X198118Y235618D01*
X202500Y240000D01*
X206250Y240000D01*
X210000Y243750D01*
X210000Y307500D01*
X198222Y319278D01*
X193048Y319278D01*
X205486Y435864D02*
X195864Y435864D01*
X195000Y435000D01*
X157500Y435000D01*
X150000Y427500D01*
X150000Y367500D01*
X142500Y360000D01*
X67500Y360000D01*
X67500Y357568D01*
X61976Y352044D01*
X494284Y442468D02*
X487500Y435684D01*
X487500Y435000D01*
X480000Y427500D01*
X337500Y427500D01*
X335486Y429514D01*
X335486Y435864D01*
X443532Y89662D02*
X443532Y83532D01*
X442500Y82500D01*
X442500Y60000D01*
X435000Y52500D01*
X135000Y52500D01*
X127500Y60000D01*
X127500Y82500D01*
X120000Y90000D01*
X15000Y90000D01*
X7500Y97500D01*
X7500Y285000D01*
X15000Y292500D01*
X30000Y292500D01*
X30000Y294668D01*
X36576Y301244D01*
X36576Y453644D02*
X32932Y450000D01*
X30000Y450000D01*
X22500Y442500D01*
X22500Y367500D01*
X30000Y360000D01*
X30000Y358620D01*
X36576Y352044D01*
X154042Y214422D02*
X150000Y210380D01*
X150000Y210000D01*
X135000Y210000D01*
X127500Y202500D01*
X127500Y135000D01*
X120000Y127500D01*
X33750Y127500D01*
X30000Y131250D01*
X30000Y135000D01*
X27052Y135000D01*
X21082Y140970D01*
X671370Y428498D02*
X660998Y428498D01*
X660000Y427500D01*
X562500Y427500D01*
X555000Y435000D01*
X555000Y450000D01*
X547500Y457500D01*
X330000Y457500D01*
X322500Y450000D01*
X322500Y427500D01*
X315000Y420000D01*
X187500Y420000D01*
X180000Y412500D01*
X180000Y333750D01*
X176250Y330000D01*
X65332Y330000D01*
X61976Y326644D01*
X838200Y25400D02*
X833600Y30000D01*
X832500Y30000D01*
X832500Y112500D01*
X825000Y120000D01*
X668020Y120000D01*
X668020Y129540D01*
X406400Y25400D02*
X406400Y16400D01*
X397500Y7500D01*
X247500Y7500D01*
X240000Y15000D01*
X240000Y22500D01*
X239636Y22500D01*
X236220Y25916D01*
X371968Y409292D02*
X367676Y405000D01*
X337500Y405000D01*
X330000Y397500D01*
X330000Y300000D01*
X326296Y296296D01*
X320320Y296296D01*
X198118Y255082D02*
X198118Y255000D01*
X75000Y255000D01*
X67500Y247500D01*
X67500Y202500D01*
X60000Y195000D01*
X37500Y195000D01*
X30000Y187500D01*
X30000Y172500D01*
X27212Y172500D01*
X21082Y166370D01*
X548132Y372110D02*
X552742Y367500D01*
X555000Y367500D01*
X562500Y360000D01*
X562500Y165000D01*
X555000Y157500D01*
X517500Y157500D01*
X510000Y165000D01*
X510000Y172500D01*
X502500Y180000D01*
X311250Y180000D01*
X307500Y176250D01*
X307500Y165000D01*
X300000Y157500D01*
X165000Y157500D01*
X157500Y150000D01*
X157500Y123750D01*
X153750Y120000D01*
X146250Y120000D01*
X142500Y116250D01*
X142500Y105000D01*
X135000Y97500D01*
X37500Y97500D01*
X30000Y105000D01*
X30000Y112500D01*
X26930Y115570D01*
X21082Y115570D01*
G54D13*
X-2540Y-2540D02*
X-2540Y51308D01*
X-2540Y-2540D02*
X97568Y-2540D01*
X998540Y-2540D02*
X898432Y-2540D01*
X998540Y-2540D02*
X998540Y51308D01*
X998540Y535940D02*
X998540Y482092D01*
X998540Y535940D02*
X898432Y535940D01*
X-2540Y535940D02*
X97568Y535940D01*
X-2540Y535940D02*
X-2540Y482092D01*
X-52540Y-2540D02*
X-152540Y-2540D01*
X-102540Y-52540D02*
X-102540Y47460D01*
X-140040Y-2540D02*
G75*
D01*
G02X-140040Y-2540I37500J0*
G01*
X1048540Y-2540D02*
X1148540Y-2540D01*
X1098540Y-52540D02*
X1098540Y47460D01*
X1061040Y-2540D02*
G75*
D01*
G02X1061040Y-2540I37500J0*
G01*
X1086040Y-2540D02*
G75*
D01*
G02X1086040Y-2540I12500J0*
G01*
X-52540Y535940D02*
X-152540Y535940D01*
X-102540Y485940D02*
X-102540Y585940D01*
X-140040Y535940D02*
G75*
D01*
G02X-140040Y535940I37500J0*
G01*
X-127540Y535940D02*
G75*
D01*
G02X-127540Y535940I25000J0*
G01*
X-115040Y535940D02*
G75*
D01*
G02X-115040Y535940I12500J0*
G01*
G54D14*
X939800Y279654D03*
X939800Y432054D03*
X939800Y482854D03*
X939800Y457454D03*
X939800Y355854D03*
X939800Y381254D03*
X939800Y406654D03*
X939800Y305054D03*
X939800Y330454D03*
X939800Y101854D03*
X939800Y228854D03*
X939800Y254254D03*
X939800Y203454D03*
X939800Y152654D03*
X939800Y178054D03*
X939800Y127254D03*
X939800Y76454D03*
X965200Y279654D03*
X965200Y432054D03*
X965200Y508254D03*
X965200Y482854D03*
X965200Y457454D03*
X965200Y355854D03*
X965200Y381254D03*
X965200Y406654D03*
X965200Y305054D03*
X965200Y330454D03*
X965200Y101854D03*
X965200Y228854D03*
X965200Y254254D03*
X965200Y203454D03*
X965200Y152654D03*
X965200Y178054D03*
X965200Y127254D03*
X965200Y76454D03*
X264160Y508000D03*
X238760Y508000D03*
X213360Y508000D03*
X314960Y508000D03*
X289560Y508000D03*
X340360Y508000D03*
X391160Y508000D03*
X365760Y508000D03*
X416560Y508000D03*
X457200Y508000D03*
X584200Y508000D03*
X609600Y508000D03*
X558800Y508000D03*
X508000Y508000D03*
X533400Y508000D03*
X482600Y508000D03*
X685800Y508000D03*
X812800Y508000D03*
X838200Y508000D03*
X787400Y508000D03*
X736600Y508000D03*
X762000Y508000D03*
X711200Y508000D03*
X457200Y25400D03*
X330200Y25400D03*
X304800Y25400D03*
X355600Y25400D03*
X406400Y25400D03*
X381000Y25400D03*
X431800Y25400D03*
X685800Y25908D03*
X558800Y25908D03*
X533400Y25908D03*
X584200Y25908D03*
X635000Y25908D03*
X609600Y25908D03*
X660400Y25908D03*
X914400Y25400D03*
X787400Y25400D03*
X762000Y25400D03*
X812800Y25400D03*
X863600Y25400D03*
X838200Y25400D03*
X889000Y25400D03*
X25908Y233172D03*
X81534Y208026D03*
X81534Y233426D03*
X36576Y301244D03*
X61976Y402844D03*
X61976Y352044D03*
X61976Y326644D03*
X61976Y377444D03*
X61976Y479044D03*
X61976Y428244D03*
X61976Y453644D03*
X36576Y453644D03*
X36576Y377444D03*
X36576Y326644D03*
X36576Y352044D03*
X36576Y428244D03*
X36576Y402844D03*
X36576Y479044D03*
X23368Y23368D03*
X23368Y74168D03*
X48768Y74168D03*
X23368Y48768D03*
X48768Y48768D03*
X21082Y115570D03*
X21082Y166370D03*
X46482Y166370D03*
X21082Y140970D03*
X46482Y140970D03*
G54D15*
X939800Y508254D03*
X187960Y508000D03*
X635000Y508000D03*
X863600Y508000D03*
X279400Y25400D03*
X508000Y25908D03*
X736600Y25400D03*
X25908Y207772D03*
X81534Y182626D03*
X61976Y301244D03*
X48768Y23368D03*
X46482Y115570D03*
G54D16*
X937155Y505609D02*
X942445Y505609D01*
X942445Y510899D01*
X937155Y510899D01*
X937155Y505609D01*D02*
X185315Y505355D02*
X190605Y505355D01*
X190605Y510645D01*
X185315Y510645D01*
X185315Y505355D01*D02*
X632355Y505355D02*
X637645Y505355D01*
X637645Y510645D01*
X632355Y510645D01*
X632355Y505355D01*D02*
X860955Y505355D02*
X866245Y505355D01*
X866245Y510645D01*
X860955Y510645D01*
X860955Y505355D01*D02*
X276755Y22755D02*
X282045Y22755D01*
X282045Y28045D01*
X276755Y28045D01*
X276755Y22755D01*D02*
X505355Y23263D02*
X510645Y23263D01*
X510645Y28553D01*
X505355Y28553D01*
X505355Y23263D01*D02*
X733955Y22755D02*
X739245Y22755D01*
X739245Y28045D01*
X733955Y28045D01*
X733955Y22755D01*D02*
X23263Y205127D02*
X28553Y205127D01*
X28553Y210417D01*
X23263Y210417D01*
X23263Y205127D01*D02*
X78889Y179981D02*
X84179Y179981D01*
X84179Y185271D01*
X78889Y185271D01*
X78889Y179981D01*D02*
X59331Y298599D02*
X64621Y298599D01*
X64621Y303889D01*
X59331Y303889D01*
X59331Y298599D01*D02*
X46123Y20723D02*
X51413Y20723D01*
X51413Y26013D01*
X46123Y26013D01*
X46123Y20723D01*D02*
X43837Y112925D02*
X49127Y112925D01*
X49127Y118215D01*
X43837Y118215D01*
X43837Y112925D01*D02*
G54D17*
X154042Y214422D03*
X154042Y316022D03*
X846582Y433530D03*
X846582Y303530D03*
X782320Y394462D03*
X782320Y292862D03*
X833120Y271986D03*
X833120Y141986D03*
X193548Y370078D03*
X193048Y319278D03*
X505254Y284988D03*
X635254Y284988D03*
X481948Y409292D03*
X481948Y279292D03*
X445288Y409292D03*
X445288Y279292D03*
X408628Y409292D03*
X408628Y279292D03*
X371968Y409292D03*
X371968Y279292D03*
X703326Y150924D03*
X703326Y280924D03*
X533956Y175006D03*
X663956Y175006D03*
X668226Y239014D03*
X538226Y239014D03*
X727456Y402288D03*
X727456Y272288D03*
X772922Y227282D03*
X772922Y97282D03*
X320320Y296296D03*
X320320Y166296D03*
X671370Y428498D03*
X801370Y428498D03*
X163576Y392684D03*
X163076Y341884D03*
X130556Y408940D03*
X131056Y459740D03*
X285750Y176530D03*
X184150Y176530D03*
X302720Y127254D03*
X172720Y127254D03*
X185420Y26416D03*
X236220Y25916D03*
X142494Y69342D03*
X193294Y68842D03*
X142240Y183388D03*
X141740Y132588D03*
X538020Y129540D03*
X668020Y129540D03*
X374396Y237442D03*
X374396Y107442D03*
X413258Y236680D03*
X413258Y106680D03*
X580476Y470470D03*
X450476Y470470D03*
X443532Y89662D03*
X573532Y89662D03*
X335486Y435864D03*
X205486Y435864D03*
X364284Y442468D03*
X494284Y442468D03*
G54D18*
X198118Y229682D03*
X198118Y255082D03*
X198118Y280482D03*
X286258Y392430D03*
X260858Y392430D03*
X235458Y392430D03*
X548132Y346710D03*
X548132Y372110D03*
X548132Y397510D03*

M02*
