G04 Generated by Ultiboard 14.0 *
%FSLAX34Y34*%
%MOMM*%

%ADD10C,0.0001*%
%ADD11C,0.1270*%


G04 ColorRGB FF14FF for the following layer *
%LNSilkscreen Bottom*%
%LPD*%
G54D10*
G54D11*
X-2540Y-2540D02*
X-2540Y51308D01*
X-2540Y-2540D02*
X97568Y-2540D01*
X998540Y-2540D02*
X898432Y-2540D01*
X998540Y-2540D02*
X998540Y51308D01*
X998540Y535940D02*
X998540Y482092D01*
X998540Y535940D02*
X898432Y535940D01*
X-2540Y535940D02*
X97568Y535940D01*
X-2540Y535940D02*
X-2540Y482092D01*
X-52540Y-2540D02*
X-152540Y-2540D01*
X-102540Y-52540D02*
X-102540Y47460D01*
X-140040Y-2540D02*
G75*
D01*
G02X-140040Y-2540I37500J0*
G01*
X1048540Y-2540D02*
X1148540Y-2540D01*
X1098540Y-52540D02*
X1098540Y47460D01*
X1061040Y-2540D02*
G75*
D01*
G02X1061040Y-2540I37500J0*
G01*
X1086040Y-2540D02*
G75*
D01*
G02X1086040Y-2540I12500J0*
G01*
X-52540Y535940D02*
X-152540Y535940D01*
X-102540Y485940D02*
X-102540Y585940D01*
X-140040Y535940D02*
G75*
D01*
G02X-140040Y535940I37500J0*
G01*
X-127540Y535940D02*
G75*
D01*
G02X-127540Y535940I25000J0*
G01*
X-115040Y535940D02*
G75*
D01*
G02X-115040Y535940I12500J0*
G01*

M02*
