G04 Generated by Ultiboard 14.0 *
%FSLAX34Y34*%
%MOMM*%

%ADD11C,3.2000*%
%ADD12C,0.8890*%
%ADD13C,0.9949*%
%ADD14C,0.9000*%
%ADD15C,1.1810*%


G04 ColorRGB 000000 for the following layer *
%LNDrill-Copper Top-Copper Bottom*%
%LPD*%
G54D11*
X152400Y508000D03*
X901700Y508000D03*
X965200Y25400D03*
X660400Y76200D03*
X139700Y25400D03*
X660400Y355600D03*
G54D12*
X939800Y279654D03*
X939800Y432054D03*
X939800Y482854D03*
X939800Y457454D03*
X939800Y355854D03*
X939800Y381254D03*
X939800Y406654D03*
X939800Y305054D03*
X939800Y330454D03*
X939800Y101854D03*
X939800Y228854D03*
X939800Y254254D03*
X939800Y203454D03*
X939800Y152654D03*
X939800Y178054D03*
X939800Y127254D03*
X939800Y76454D03*
X965200Y279654D03*
X965200Y432054D03*
X965200Y508254D03*
X965200Y482854D03*
X965200Y457454D03*
X965200Y355854D03*
X965200Y381254D03*
X965200Y406654D03*
X965200Y305054D03*
X965200Y330454D03*
X965200Y101854D03*
X965200Y228854D03*
X965200Y254254D03*
X965200Y203454D03*
X965200Y152654D03*
X965200Y178054D03*
X965200Y127254D03*
X965200Y76454D03*
X264160Y508000D03*
X238760Y508000D03*
X213360Y508000D03*
X314960Y508000D03*
X289560Y508000D03*
X340360Y508000D03*
X391160Y508000D03*
X365760Y508000D03*
X416560Y508000D03*
X457200Y508000D03*
X584200Y508000D03*
X609600Y508000D03*
X558800Y508000D03*
X508000Y508000D03*
X533400Y508000D03*
X482600Y508000D03*
X685800Y508000D03*
X812800Y508000D03*
X838200Y508000D03*
X787400Y508000D03*
X736600Y508000D03*
X762000Y508000D03*
X711200Y508000D03*
X457200Y25400D03*
X330200Y25400D03*
X304800Y25400D03*
X355600Y25400D03*
X406400Y25400D03*
X381000Y25400D03*
X431800Y25400D03*
X685800Y25908D03*
X558800Y25908D03*
X533400Y25908D03*
X584200Y25908D03*
X635000Y25908D03*
X609600Y25908D03*
X660400Y25908D03*
X914400Y25400D03*
X787400Y25400D03*
X762000Y25400D03*
X812800Y25400D03*
X863600Y25400D03*
X838200Y25400D03*
X889000Y25400D03*
X25908Y233172D03*
X81534Y208026D03*
X81534Y233426D03*
X36576Y301244D03*
X61976Y402844D03*
X61976Y352044D03*
X61976Y326644D03*
X61976Y377444D03*
X61976Y479044D03*
X61976Y428244D03*
X61976Y453644D03*
X36576Y453644D03*
X36576Y377444D03*
X36576Y326644D03*
X36576Y352044D03*
X36576Y428244D03*
X36576Y402844D03*
X36576Y479044D03*
X23368Y23368D03*
X23368Y74168D03*
X48768Y74168D03*
X23368Y48768D03*
X48768Y48768D03*
X21082Y115570D03*
X21082Y166370D03*
X46482Y166370D03*
X21082Y140970D03*
X46482Y140970D03*
G54D13*
X939800Y508254D03*
X187960Y508000D03*
X635000Y508000D03*
X863600Y508000D03*
X279400Y25400D03*
X508000Y25908D03*
X736600Y25400D03*
X25908Y207772D03*
X81534Y182626D03*
X61976Y301244D03*
X48768Y23368D03*
X46482Y115570D03*
G54D14*
X154042Y214422D03*
X154042Y316022D03*
X846582Y433530D03*
X846582Y303530D03*
X782320Y394462D03*
X782320Y292862D03*
X833120Y271986D03*
X833120Y141986D03*
X193548Y370078D03*
X193048Y319278D03*
X505254Y284988D03*
X635254Y284988D03*
X481948Y409292D03*
X481948Y279292D03*
X445288Y409292D03*
X445288Y279292D03*
X408628Y409292D03*
X408628Y279292D03*
X371968Y409292D03*
X371968Y279292D03*
X703326Y150924D03*
X703326Y280924D03*
X533956Y175006D03*
X663956Y175006D03*
X668226Y239014D03*
X538226Y239014D03*
X727456Y402288D03*
X727456Y272288D03*
X772922Y227282D03*
X772922Y97282D03*
X320320Y296296D03*
X320320Y166296D03*
X671370Y428498D03*
X801370Y428498D03*
X163576Y392684D03*
X163076Y341884D03*
X130556Y408940D03*
X131056Y459740D03*
X285750Y176530D03*
X184150Y176530D03*
X302720Y127254D03*
X172720Y127254D03*
X185420Y26416D03*
X236220Y25916D03*
X142494Y69342D03*
X193294Y68842D03*
X142240Y183388D03*
X141740Y132588D03*
X538020Y129540D03*
X668020Y129540D03*
X374396Y237442D03*
X374396Y107442D03*
X413258Y236680D03*
X413258Y106680D03*
X580476Y470470D03*
X450476Y470470D03*
X443532Y89662D03*
X573532Y89662D03*
X335486Y435864D03*
X205486Y435864D03*
X364284Y442468D03*
X494284Y442468D03*
G54D15*
X198118Y229682D03*
X198118Y255082D03*
X198118Y280482D03*
X286258Y392430D03*
X260858Y392430D03*
X235458Y392430D03*
X548132Y346710D03*
X548132Y372110D03*
X548132Y397510D03*

M02*
