M48
METRIC,TZ
VER,1
FMAT,2
DETECT,ON
ATC,ON
T1C3.2000
T2C0.8890
T3C0.9949
T4C0.9000
T5C1.1810
%
T1
X152400Y508000
X901700
X965200Y25400
X660400Y76200
X139700Y25400
X660400Y355600
T2
X939800Y279654
Y432054
Y482854
Y457454
Y355854
Y381254
Y406654
Y305054
Y330454
Y101854
Y228854
Y254254
Y203454
Y152654
Y178054
Y127254
Y76454
X965200Y279654
Y432054
Y508254
Y482854
Y457454
Y355854
Y381254
Y406654
Y305054
Y330454
Y101854
Y228854
Y254254
Y203454
Y152654
Y178054
Y127254
Y76454
X264160Y508000
X238760
X213360
X314960
X289560
X340360
X391160
X365760
X416560
X457200
X584200
X609600
X558800
X508000
X533400
X482600
X685800
X812800
X838200
X787400
X736600
X762000
X711200
X457200Y25400
X330200
X304800
X355600
X406400
X381000
X431800
X685800Y25908
X558800
X533400
X584200
X635000
X609600
X660400
X914400Y25400
X787400
X762000
X812800
X863600
X838200
X889000
X25908Y233172
X81534Y208026
Y233426
X36576Y301244
X61976Y402844
Y352044
Y326644
Y377444
Y479044
Y428244
Y453644
X36576
Y377444
Y326644
Y352044
Y428244
Y402844
Y479044
X23368Y23368
Y74168
X48768
X23368Y48768
X48768
X21082Y115570
Y166370
X46482
X21082Y140970
X46482
T3
X939800Y508254
X187960Y508000
X635000
X863600
X279400Y25400
X508000Y25908
X736600Y25400
X25908Y207772
X81534Y182626
X61976Y301244
X48768Y23368
X46482Y115570
T4
X154042Y214422
Y316022
X846582Y433530
Y303530
X782320Y394462
Y292862
X833120Y271986
Y141986
X193548Y370078
X193048Y319278
X505254Y284988
X635254
X481948Y409292
Y279292
X445288Y409292
Y279292
X408628Y409292
Y279292
X371968Y409292
Y279292
X703326Y150924
Y280924
X533956Y175006
X663956
X668226Y239014
X538226
X727456Y402288
Y272288
X772922Y227282
Y97282
X320320Y296296
Y166296
X671370Y428498
X801370
X163576Y392684
X163076Y341884
X130556Y408940
X131056Y459740
X285750Y176530
X184150
X302720Y127254
X172720
X185420Y26416
X236220Y25916
X142494Y69342
X193294Y68842
X142240Y183388
X141740Y132588
X538020Y129540
X668020
X374396Y237442
Y107442
X413258Y236680
Y106680
X580476Y470470
X450476
X443532Y89662
X573532
X335486Y435864
X205486
X364284Y442468
X494284
T5
X198118Y229682
Y255082
Y280482
X286258Y392430
X260858
X235458
X548132Y346710
Y372110
Y397510
M30
